<svg xmlns="http://www.w3.org/2000/svg" xmlns:xlink="http://www.w3.org/1999/xlink" width="406" zoomAndPan="magnify" viewBox="0 0 304.5 263.250001" height="351" preserveAspectRatio="xMidYMid meet" version="1.0"><defs><g/><clipPath id="d4218b616b"><path d="M 99 40 L 205.976562 40 L 205.976562 163.800781 L 99 163.800781 Z M 99 40 " clip-rule="nonzero"/></clipPath><clipPath id="02e7541c03"><path d="M 145.445312 125.382812 L 182.148438 125.382812 L 182.148438 156.84375 L 145.445312 156.84375 Z M 145.445312 125.382812 " clip-rule="nonzero"/></clipPath></defs><g clip-path="url(#d4218b616b)"><path fill="#eb690a" d="M 128.003906 124.761719 C 127.445312 122.367188 128.78125 119.929688 131.113281 119.132812 L 138.546875 116.523438 L 137.210938 112.78125 C 134.101562 104.015625 138.742188 94.355469 147.558594 91.261719 C 156.375 88.171875 166.09375 92.785156 169.203125 101.550781 L 170.539062 105.292969 L 177.972656 102.6875 C 180.304688 101.863281 182.878906 102.929688 183.945312 105.125 L 201.144531 140.289062 L 205.808594 82.472656 C 206.074219 79.117188 203.765625 76.097656 200.464844 75.445312 L 189.898438 73.390625 L 190.941406 68.054688 C 193.394531 55.542969 185.183594 43.398438 172.601562 40.933594 C 160.019531 38.492188 147.800781 46.65625 145.324219 59.167969 L 144.28125 64.503906 L 133.714844 62.453125 C 130.386719 61.800781 127.105469 63.730469 126.085938 66.945312 L 100.144531 148.453125 C 98.90625 152.339844 101.359375 156.445312 105.390625 157.242188 L 136.945312 163.402344 Z M 188.003906 83.074219 C 187.6875 84.671875 186.132812 85.707031 184.53125 85.394531 C 182.925781 85.082031 181.882812 83.535156 182.199219 81.941406 C 182.511719 80.347656 184.066406 79.308594 185.671875 79.621094 C 187.25 79.9375 188.320312 81.480469 188.003906 83.074219 Z M 151.179688 60.324219 C 153.023438 51.027344 162.109375 44.941406 171.484375 46.753906 C 180.863281 48.566406 186.957031 57.621094 185.136719 66.945312 L 184.09375 72.28125 L 150.132812 65.664062 Z M 145.882812 71.871094 C 147.488281 72.183594 148.53125 73.730469 148.214844 75.324219 C 147.898438 76.917969 146.34375 77.957031 144.742188 77.640625 C 143.136719 77.328125 142.09375 75.78125 142.410156 74.1875 C 142.703125 72.59375 144.253906 71.554688 145.882812 71.871094 Z M 145.882812 71.871094 " fill-opacity="1" fill-rule="nonzero"/></g><path fill="#eb690a" d="M 165.121094 102.976562 C 162.8125 96.457031 155.574219 93 148.992188 95.320312 C 142.433594 97.613281 138.960938 104.8125 141.292969 111.355469 L 142.628906 115.101562 L 166.457031 106.742188 Z M 165.121094 102.976562 " fill-opacity="1" fill-rule="nonzero"/><path fill="#eb690a" d="M 142.265625 120.582031 C 141.148438 120.96875 140.539062 122.199219 140.953125 123.335938 C 141.339844 124.445312 142.578125 125.050781 143.722656 124.640625 C 144.839844 124.253906 145.445312 123.019531 145.03125 121.886719 C 144.644531 120.773438 143.40625 120.171875 142.265625 120.582031 Z M 142.265625 120.582031 " fill-opacity="1" fill-rule="nonzero"/><path fill="#eb690a" d="M 171.632812 114.835938 C 172.75 114.449219 173.355469 113.214844 172.941406 112.082031 C 172.554688 110.96875 171.316406 110.367188 170.171875 110.777344 C 169.03125 111.1875 168.449219 112.394531 168.863281 113.53125 C 169.273438 114.640625 170.515625 115.246094 171.632812 114.835938 Z M 171.632812 114.835938 " fill-opacity="1" fill-rule="nonzero"/><g clip-path="url(#02e7541c03)"><path fill="#eb690a" d="M 173.777344 131.960938 C 171.121094 136.917969 168.789062 142.011719 166.789062 147.265625 C 166.390625 148.308594 165.808594 149.3125 165.148438 150.21875 C 164.40625 151.238281 163.300781 151.714844 162 151.742188 C 160.015625 151.785156 158.199219 151.214844 156.453125 150.347656 C 156.28125 150.261719 156.125 150.148438 155.964844 150.039062 C 155.910156 150.003906 155.867188 149.953125 155.902344 149.988281 C 155.742188 149.859375 155.738281 149.652344 155.902344 149.566406 C 155.976562 149.527344 156.046875 149.496094 156.121094 149.472656 C 156.398438 149.382812 156.507812 149.402344 156.507812 149.402344 C 157.050781 149.375 156.957031 149.320312 158.027344 149.285156 C 158.375 149.273438 158.292969 149.28125 158.671875 149.269531 C 159.066406 149.253906 159.34375 149.234375 159.859375 149.207031 C 160.21875 149.191406 160.578125 149.167969 160.933594 149.136719 C 161.21875 149.109375 161.503906 149.078125 161.785156 149.035156 C 163.585938 148.773438 164.652344 147.5625 165.355469 145.976562 C 166.207031 144.054688 167.019531 142.109375 167.941406 140.214844 C 169.355469 137.308594 170.949219 134.496094 172.800781 131.832031 C 173.90625 130.246094 174.925781 128.601562 175.992188 126.988281 C 176.148438 126.757812 176.332031 126.542969 176.511719 126.328125 C 175.609375 128.210938 174.761719 130.121094 173.777344 131.960938 Z M 182.046875 133.332031 C 181.753906 130.433594 180.164062 128.210938 178.15625 126.234375 C 177.839844 125.921875 177.441406 125.6875 177.039062 125.386719 C 176.746094 125.726562 176.453125 126 176.234375 126.324219 C 175.285156 127.726562 174.382812 129.160156 173.410156 130.542969 C 170.882812 134.15625 168.65625 137.925781 166.933594 141.992188 C 166.226562 143.65625 165.417969 145.28125 164.589844 146.890625 C 164 148.039062 162.957031 148.6875 161.691406 148.808594 C 160.265625 148.945312 158.820312 148.90625 157.390625 149.003906 C 156.820312 149.046875 156.242188 149.210938 155.699219 149.410156 C 155.339844 149.539062 155.066406 149.890625 154.710938 150.042969 C 154.167969 150.28125 153.578125 150.40625 153.027344 150.625 C 150.976562 151.429688 148.929688 152.238281 146.898438 153.089844 C 146.535156 153.242188 146.1875 153.558594 145.964844 153.886719 C 145.445312 154.648438 145.59375 154.929688 146.5 155.089844 C 148.101562 155.371094 149.707031 155.648438 151.308594 155.929688 C 151.328125 155.933594 154.964844 156.484375 156.679688 156.550781 C 158.09375 156.609375 159.511719 156.703125 160.925781 156.785156 C 161.59375 156.824219 162.28125 156.824219 162.953125 156.832031 C 163.632812 156.839844 164.320312 156.8125 164.980469 156.640625 C 165.386719 156.535156 165.777344 156.359375 166.148438 156.171875 C 167.015625 155.734375 167.824219 155.144531 168.4375 154.390625 C 168.75 154.003906 168.964844 153.589844 169.179688 153.144531 C 169.429688 152.632812 169.71875 152.136719 169.925781 151.597656 C 170.417969 150.320312 170.773438 148.992188 171.242188 147.707031 C 171.265625 147.640625 171.289062 147.578125 171.3125 147.511719 C 172.214844 145.101562 173.332031 142.796875 175.066406 140.84375 C 175.648438 140.191406 176.261719 139.558594 177.125 139.261719 C 177.699219 139.0625 178.4375 138.96875 178.949219 139.382812 C 179.46875 139.796875 179.566406 140.5 179.59375 141.121094 C 179.679688 142.855469 179.609375 144.609375 179.632812 146.347656 C 179.65625 148.171875 179.683594 149.996094 179.707031 151.824219 C 179.714844 152.542969 179.726562 153.257812 179.734375 153.976562 C 179.738281 154.28125 179.734375 154.582031 179.734375 154.886719 C 179.730469 155.039062 179.730469 155.195312 179.730469 155.347656 C 179.730469 155.460938 179.726562 155.617188 179.882812 155.621094 C 179.882812 155.621094 180.605469 155.628906 180.605469 155.628906 C 180.679688 155.628906 180.734375 155.578125 180.753906 155.511719 C 180.765625 155.46875 180.765625 155.425781 180.765625 155.382812 C 180.75 154.761719 180.765625 154.132812 180.777344 153.511719 C 180.785156 153.203125 180.792969 152.898438 180.800781 152.59375 C 180.808594 152.238281 180.816406 151.882812 180.828125 151.527344 C 180.839844 151.132812 180.851562 150.738281 180.863281 150.34375 C 180.878906 149.921875 180.894531 149.496094 180.910156 149.074219 C 180.925781 148.628906 180.941406 148.183594 180.960938 147.738281 C 180.976562 147.285156 180.996094 146.832031 181.015625 146.375 C 181.039062 145.921875 181.058594 145.464844 181.082031 145.007812 C 181.101562 144.5625 181.125 144.113281 181.152344 143.667969 C 181.175781 143.238281 181.199219 142.8125 181.226562 142.382812 C 181.25 141.980469 181.277344 141.582031 181.304688 141.179688 C 181.332031 140.816406 181.359375 140.453125 181.390625 140.09375 C 181.417969 139.777344 181.445312 139.460938 181.476562 139.144531 C 181.503906 138.886719 181.535156 138.625 181.570312 138.367188 C 181.574219 138.332031 181.585938 138.289062 181.585938 138.25 C 181.675781 137.652344 181.761719 137.054688 181.851562 136.460938 C 182.007812 135.414062 182.148438 134.375 182.046875 133.332031 " fill-opacity="1" fill-rule="nonzero"/></g><g fill="#272424" fill-opacity="1"><g transform="translate(51.259013, 204.368678)"><g><path d="M 16.9375 0 L 2.203125 0 L 2.203125 -23.71875 L 8.125 -23.71875 L 8.125 -5.421875 L 16.9375 -5.421875 Z M 16.9375 0 "/></g></g></g><g fill="#272424" fill-opacity="1"><g transform="translate(68.195412, 204.368678)"><g><path d="M 10.09375 -18.0625 C 11.851562 -18.0625 13.460938 -17.640625 14.921875 -16.796875 C 16.378906 -15.960938 17.519531 -14.828125 18.34375 -13.390625 C 19.164062 -11.960938 19.546875 -10.378906 19.484375 -8.640625 L 6.265625 -8.640625 C 6.285156 -7.285156 6.644531 -6.222656 7.34375 -5.453125 C 8.050781 -4.679688 8.988281 -4.296875 10.15625 -4.296875 C 10.925781 -4.296875 11.609375 -4.460938 12.203125 -4.796875 C 12.804688 -5.140625 13.289062 -5.628906 13.65625 -6.265625 L 19.203125 -6.265625 C 18.523438 -4.117188 17.410156 -2.460938 15.859375 -1.296875 C 14.316406 -0.140625 12.394531 0.4375 10.09375 0.4375 C 8.394531 0.4375 6.820312 0.0546875 5.375 -0.703125 C 3.9375 -1.472656 2.78125 -2.554688 1.90625 -3.953125 C 1.039062 -5.359375 0.609375 -6.976562 0.609375 -8.8125 C 0.609375 -10.632812 1.039062 -12.242188 1.90625 -13.640625 C 2.78125 -15.046875 3.9375 -16.132812 5.375 -16.90625 C 6.820312 -17.675781 8.394531 -18.0625 10.09375 -18.0625 Z M 10.09375 -13.3125 C 9.007812 -13.3125 8.125 -12.960938 7.4375 -12.265625 C 6.75 -11.566406 6.359375 -10.582031 6.265625 -9.3125 L 13.921875 -9.3125 C 13.859375 -10.507812 13.492188 -11.472656 12.828125 -12.203125 C 12.160156 -12.941406 11.25 -13.3125 10.09375 -13.3125 Z M 10.09375 -13.3125 "/></g></g></g><g fill="#272424" fill-opacity="1"><g transform="translate(87.604556, 204.368678)"><g><path d="M 9.109375 0.4375 C 7.503906 0.4375 6.09375 0.164062 4.875 -0.375 C 3.65625 -0.914062 2.703125 -1.660156 2.015625 -2.609375 C 1.328125 -3.554688 0.9375 -4.648438 0.84375 -5.890625 L 6.203125 -5.890625 C 6.265625 -5.234375 6.546875 -4.71875 7.046875 -4.34375 C 7.546875 -3.976562 8.222656 -3.796875 9.078125 -3.796875 C 9.773438 -3.796875 10.320312 -3.90625 10.71875 -4.125 C 11.113281 -4.351562 11.3125 -4.695312 11.3125 -5.15625 C 11.3125 -5.644531 11.046875 -6.007812 10.515625 -6.25 C 9.984375 -6.488281 9.15625 -6.71875 8.03125 -6.9375 C 6.675781 -7.238281 5.554688 -7.5625 4.671875 -7.90625 C 3.796875 -8.257812 3.03125 -8.820312 2.375 -9.59375 C 1.71875 -10.375 1.390625 -11.445312 1.390625 -12.8125 C 1.390625 -13.800781 1.703125 -14.691406 2.328125 -15.484375 C 2.960938 -16.273438 3.84375 -16.898438 4.96875 -17.359375 C 6.101562 -17.828125 7.382812 -18.0625 8.8125 -18.0625 C 10.113281 -18.0625 11.328125 -17.804688 12.453125 -17.296875 C 13.585938 -16.785156 14.503906 -16.070312 15.203125 -15.15625 C 15.910156 -14.238281 16.296875 -13.195312 16.359375 -12.03125 L 11.078125 -12.03125 C 11.035156 -12.59375 10.800781 -13.03125 10.375 -13.34375 C 9.957031 -13.664062 9.398438 -13.828125 8.703125 -13.828125 C 8.117188 -13.828125 7.65625 -13.726562 7.3125 -13.53125 C 6.976562 -13.34375 6.8125 -13.066406 6.8125 -12.703125 C 6.8125 -12.253906 7.066406 -11.914062 7.578125 -11.6875 C 8.097656 -11.457031 8.914062 -11.234375 10.03125 -11.015625 C 11.382812 -10.710938 12.507812 -10.390625 13.40625 -10.046875 C 14.3125 -9.710938 15.09375 -9.160156 15.75 -8.390625 C 16.40625 -7.628906 16.734375 -6.59375 16.734375 -5.28125 C 16.734375 -3.5 16.039062 -2.097656 14.65625 -1.078125 C 13.28125 -0.0664062 11.429688 0.4375 9.109375 0.4375 Z M 9.109375 0.4375 "/></g></g></g><g fill="#272424" fill-opacity="1"><g transform="translate(104.676441, 204.368678)"><g/></g></g><g fill="#272424" fill-opacity="1"><g transform="translate(113.652629, 204.368678)"><g><path d="M 10.09375 0.4375 C 7.25 0.4375 4.960938 -0.296875 3.234375 -1.765625 C 1.503906 -3.234375 0.617188 -5.351562 0.578125 -8.125 L 6.4375 -8.125 C 6.5 -5.570312 7.707031 -4.296875 10.0625 -4.296875 C 11.070312 -4.296875 11.835938 -4.5 12.359375 -4.90625 C 12.878906 -5.3125 13.140625 -5.867188 13.140625 -6.578125 C 13.140625 -7.117188 12.953125 -7.570312 12.578125 -7.9375 C 12.210938 -8.3125 11.75 -8.617188 11.1875 -8.859375 C 10.632812 -9.097656 9.832031 -9.394531 8.78125 -9.75 C 7.195312 -10.269531 5.90625 -10.78125 4.90625 -11.28125 C 3.914062 -11.78125 3.050781 -12.523438 2.3125 -13.515625 C 1.582031 -14.503906 1.21875 -15.789062 1.21875 -17.375 C 1.21875 -18.6875 1.582031 -19.851562 2.3125 -20.875 C 3.050781 -21.90625 4.082031 -22.707031 5.40625 -23.28125 C 6.726562 -23.863281 8.234375 -24.15625 9.921875 -24.15625 C 11.460938 -24.15625 12.90625 -23.863281 14.25 -23.28125 C 15.59375 -22.707031 16.6875 -21.816406 17.53125 -20.609375 C 18.375 -19.398438 18.804688 -17.894531 18.828125 -16.09375 L 13.078125 -16.09375 C 13.054688 -17.101562 12.785156 -17.90625 12.265625 -18.5 C 11.742188 -19.101562 10.960938 -19.40625 9.921875 -19.40625 C 9.085938 -19.40625 8.429688 -19.207031 7.953125 -18.8125 C 7.484375 -18.414062 7.25 -17.894531 7.25 -17.25 C 7.25 -16.476562 7.59375 -15.890625 8.28125 -15.484375 C 8.96875 -15.078125 10.054688 -14.632812 11.546875 -14.15625 C 13.128906 -13.632812 14.425781 -13.117188 15.4375 -12.609375 C 16.457031 -12.109375 17.332031 -11.351562 18.0625 -10.34375 C 18.800781 -9.34375 19.171875 -8.039062 19.171875 -6.4375 C 19.171875 -5.175781 18.816406 -4.023438 18.109375 -2.984375 C 17.398438 -1.941406 16.359375 -1.109375 14.984375 -0.484375 C 13.617188 0.128906 11.988281 0.4375 10.09375 0.4375 Z M 10.09375 0.4375 "/></g></g></g><g fill="#272424" fill-opacity="1"><g transform="translate(132.723034, 204.368678)"><g><path d="M 7.34375 0 L 1.6875 0 L 1.6875 -17.609375 L 7.34375 -17.609375 Z M 7.34375 -20.828125 L 1.6875 -20.828125 L 1.6875 -21.84375 L 7.34375 -21.84375 Z M 7.34375 -20.828125 "/></g></g></g><g fill="#272424" fill-opacity="1"><g transform="translate(141.089506, 204.368678)"><g><path d="M 14.5 -17.609375 L 19.75 -17.609375 L 19.75 -1.828125 C 19.75 -0.046875 19.425781 1.566406 18.78125 3.015625 C 18.132812 4.460938 17.101562 5.617188 15.6875 6.484375 C 14.28125 7.359375 12.484375 7.796875 10.296875 7.796875 C 7.628906 7.796875 5.519531 7.140625 3.96875 5.828125 C 2.425781 4.515625 1.441406 2.796875 1.015625 0.671875 L 6.671875 0.671875 C 7.328125 2.140625 8.515625 2.875 10.234375 2.875 C 11.472656 2.875 12.425781 2.519531 13.09375 1.8125 C 13.757812 1.101562 14.09375 0.160156 14.09375 -1.015625 L 14.09375 -2.171875 C 13.53125 -1.648438 12.8125 -1.226562 11.9375 -0.90625 C 11.070312 -0.59375 10.085938 -0.4375 8.984375 -0.4375 C 7.597656 -0.4375 6.257812 -0.789062 4.96875 -1.5 C 3.6875 -2.21875 2.640625 -3.25 1.828125 -4.59375 C 1.015625 -5.9375 0.609375 -7.488281 0.609375 -9.25 C 0.609375 -11.007812 1.015625 -12.5625 1.828125 -13.90625 C 2.640625 -15.25 3.6875 -16.273438 4.96875 -16.984375 C 6.257812 -17.703125 7.597656 -18.0625 8.984375 -18.0625 C 11.304688 -18.0625 13.144531 -17.347656 14.5 -15.921875 Z M 10.296875 -5.359375 C 11.472656 -5.359375 12.4375 -5.726562 13.1875 -6.46875 C 13.945312 -7.21875 14.328125 -8.144531 14.328125 -9.25 C 14.328125 -10.351562 13.945312 -11.273438 13.1875 -12.015625 C 12.4375 -12.765625 11.472656 -13.140625 10.296875 -13.140625 C 9.117188 -13.140625 8.148438 -12.765625 7.390625 -12.015625 C 6.640625 -11.273438 6.265625 -10.351562 6.265625 -9.25 C 6.265625 -8.144531 6.640625 -7.21875 7.390625 -6.46875 C 8.148438 -5.726562 9.117188 -5.359375 10.296875 -5.359375 Z M 10.296875 -5.359375 "/></g></g></g><g fill="#272424" fill-opacity="1"><g transform="translate(161.853575, 204.368678)"><g><path d="M 12.15625 -18.0625 C 13.539062 -18.0625 14.769531 -17.738281 15.84375 -17.09375 C 16.914062 -16.445312 17.753906 -15.554688 18.359375 -14.421875 C 18.972656 -13.296875 19.28125 -12.007812 19.28125 -10.5625 L 19.28125 0 L 13.625 0 L 13.625 -9.34375 C 13.625 -10.457031 13.359375 -11.335938 12.828125 -11.984375 C 12.296875 -12.640625 11.539062 -12.96875 10.5625 -12.96875 C 9.613281 -12.96875 8.835938 -12.632812 8.234375 -11.96875 C 7.640625 -11.300781 7.34375 -10.425781 7.34375 -9.34375 L 7.34375 0 L 1.6875 0 L 1.6875 -17.609375 L 6.9375 -17.609375 L 6.9375 -15.921875 C 8.34375 -17.347656 10.082031 -18.0625 12.15625 -18.0625 Z M 12.15625 -18.0625 "/></g></g></g><g fill="#272424" fill-opacity="1"><g transform="translate(181.974053, 204.368678)"><g><path d="M 14.9375 -17.609375 L 20.1875 -17.609375 L 20.1875 0 L 14.9375 0 L 14.9375 -1.734375 C 13.601562 -0.285156 11.796875 0.4375 9.515625 0.4375 C 8.023438 0.4375 6.601562 0.0625 5.25 -0.6875 C 3.894531 -1.445312 2.800781 -2.53125 1.96875 -3.9375 C 1.132812 -5.351562 0.71875 -6.976562 0.71875 -8.8125 C 0.71875 -10.632812 1.132812 -12.25 1.96875 -13.65625 C 2.800781 -15.070312 3.894531 -16.160156 5.25 -16.921875 C 6.601562 -17.679688 8.023438 -18.0625 9.515625 -18.0625 C 11.796875 -18.0625 13.601562 -17.335938 14.9375 -15.890625 Z M 10.5625 -4.640625 C 11.78125 -4.640625 12.785156 -5.035156 13.578125 -5.828125 C 14.367188 -6.617188 14.765625 -7.613281 14.765625 -8.8125 C 14.765625 -10.007812 14.367188 -11 13.578125 -11.78125 C 12.785156 -12.570312 11.78125 -12.96875 10.5625 -12.96875 C 9.34375 -12.96875 8.335938 -12.570312 7.546875 -11.78125 C 6.765625 -11 6.375 -10.007812 6.375 -8.8125 C 6.375 -7.613281 6.765625 -6.617188 7.546875 -5.828125 C 8.335938 -5.035156 9.34375 -4.640625 10.5625 -4.640625 Z M 10.5625 -4.640625 "/></g></g></g><g fill="#272424" fill-opacity="1"><g transform="translate(203.178481, 204.368678)"><g><path d="M 13.75 -17.859375 L 13.75 -12.765625 L 11.484375 -12.765625 C 10.328125 -12.765625 9.347656 -12.375 8.546875 -11.59375 C 7.742188 -10.820312 7.34375 -9.835938 7.34375 -8.640625 L 7.34375 0 L 1.6875 0 L 1.6875 -17.609375 L 6.9375 -17.609375 L 6.9375 -15.71875 C 8.34375 -17.144531 10.148438 -17.859375 12.359375 -17.859375 Z M 13.75 -17.859375 "/></g></g></g><g fill="#272424" fill-opacity="1"><g transform="translate(216.083973, 204.368678)"><g><path d="M 10.09375 -18.0625 C 11.851562 -18.0625 13.460938 -17.640625 14.921875 -16.796875 C 16.378906 -15.960938 17.519531 -14.828125 18.34375 -13.390625 C 19.164062 -11.960938 19.546875 -10.378906 19.484375 -8.640625 L 6.265625 -8.640625 C 6.285156 -7.285156 6.644531 -6.222656 7.34375 -5.453125 C 8.050781 -4.679688 8.988281 -4.296875 10.15625 -4.296875 C 10.925781 -4.296875 11.609375 -4.460938 12.203125 -4.796875 C 12.804688 -5.140625 13.289062 -5.628906 13.65625 -6.265625 L 19.203125 -6.265625 C 18.523438 -4.117188 17.410156 -2.460938 15.859375 -1.296875 C 14.316406 -0.140625 12.394531 0.4375 10.09375 0.4375 C 8.394531 0.4375 6.820312 0.0546875 5.375 -0.703125 C 3.9375 -1.472656 2.78125 -2.554688 1.90625 -3.953125 C 1.039062 -5.359375 0.609375 -6.976562 0.609375 -8.8125 C 0.609375 -10.632812 1.039062 -12.242188 1.90625 -13.640625 C 2.78125 -15.046875 3.9375 -16.132812 5.375 -16.90625 C 6.820312 -17.675781 8.394531 -18.0625 10.09375 -18.0625 Z M 10.09375 -13.3125 C 9.007812 -13.3125 8.125 -12.960938 7.4375 -12.265625 C 6.75 -11.566406 6.359375 -10.582031 6.265625 -9.3125 L 13.921875 -9.3125 C 13.859375 -10.507812 13.492188 -11.472656 12.828125 -12.203125 C 12.160156 -12.941406 11.25 -13.3125 10.09375 -13.3125 Z M 10.09375 -13.3125 "/></g></g></g><g fill="#272424" fill-opacity="1"><g transform="translate(235.49312, 204.368678)"><g><path d="M 9.109375 0.4375 C 7.503906 0.4375 6.09375 0.164062 4.875 -0.375 C 3.65625 -0.914062 2.703125 -1.660156 2.015625 -2.609375 C 1.328125 -3.554688 0.9375 -4.648438 0.84375 -5.890625 L 6.203125 -5.890625 C 6.265625 -5.234375 6.546875 -4.71875 7.046875 -4.34375 C 7.546875 -3.976562 8.222656 -3.796875 9.078125 -3.796875 C 9.773438 -3.796875 10.320312 -3.90625 10.71875 -4.125 C 11.113281 -4.351562 11.3125 -4.695312 11.3125 -5.15625 C 11.3125 -5.644531 11.046875 -6.007812 10.515625 -6.25 C 9.984375 -6.488281 9.15625 -6.71875 8.03125 -6.9375 C 6.675781 -7.238281 5.554688 -7.5625 4.671875 -7.90625 C 3.796875 -8.257812 3.03125 -8.820312 2.375 -9.59375 C 1.71875 -10.375 1.390625 -11.445312 1.390625 -12.8125 C 1.390625 -13.800781 1.703125 -14.691406 2.328125 -15.484375 C 2.960938 -16.273438 3.84375 -16.898438 4.96875 -17.359375 C 6.101562 -17.828125 7.382812 -18.0625 8.8125 -18.0625 C 10.113281 -18.0625 11.328125 -17.804688 12.453125 -17.296875 C 13.585938 -16.785156 14.503906 -16.070312 15.203125 -15.15625 C 15.910156 -14.238281 16.296875 -13.195312 16.359375 -12.03125 L 11.078125 -12.03125 C 11.035156 -12.59375 10.800781 -13.03125 10.375 -13.34375 C 9.957031 -13.664062 9.398438 -13.828125 8.703125 -13.828125 C 8.117188 -13.828125 7.65625 -13.726562 7.3125 -13.53125 C 6.976562 -13.34375 6.8125 -13.066406 6.8125 -12.703125 C 6.8125 -12.253906 7.066406 -11.914062 7.578125 -11.6875 C 8.097656 -11.457031 8.914062 -11.234375 10.03125 -11.015625 C 11.382812 -10.710938 12.507812 -10.390625 13.40625 -10.046875 C 14.3125 -9.710938 15.09375 -9.160156 15.75 -8.390625 C 16.40625 -7.628906 16.734375 -6.59375 16.734375 -5.28125 C 16.734375 -3.5 16.039062 -2.097656 14.65625 -1.078125 C 13.28125 -0.0664062 11.429688 0.4375 9.109375 0.4375 Z M 9.109375 0.4375 "/></g></g></g><g fill="#272424" fill-opacity="1"><g transform="translate(50.612852, 221.650273)"><g><path d="M 0.46875 0 L 0.46875 -6.734375 L 1.859375 -6.734375 L 1.859375 0 Z M 0.46875 0 "/></g></g></g><g fill="#272424" fill-opacity="1"><g transform="translate(56.976169, 221.650273)"><g><path d="M 0.671875 -6.390625 C 0.804688 -6.515625 0.960938 -6.578125 1.140625 -6.578125 C 1.316406 -6.578125 1.472656 -6.515625 1.609375 -6.390625 C 1.742188 -6.273438 1.8125 -6.140625 1.8125 -5.984375 L 1.8125 -5.953125 C 1.8125 -5.847656 1.769531 -5.609375 1.6875 -5.234375 C 1.601562 -4.867188 1.519531 -4.523438 1.4375 -4.203125 L 1.328125 -3.71875 L 0.796875 -3.71875 C 0.578125 -4.96875 0.46875 -5.710938 0.46875 -5.953125 L 0.46875 -5.984375 C 0.46875 -6.140625 0.535156 -6.273438 0.671875 -6.390625 Z M 0.671875 -6.390625 "/></g></g></g><g fill="#272424" fill-opacity="1"><g transform="translate(63.29252, 221.650273)"><g><path d="M 1.90625 -5.203125 L 3.484375 -6.578125 L 4.203125 -5.671875 L 2.34375 -4.59375 Z M 4.53125 -1.8125 L 1.625 -1.8125 C 1.625 -1.53125 1.710938 -1.320312 1.890625 -1.1875 C 2.078125 -1.050781 2.273438 -0.984375 2.484375 -0.984375 C 2.710938 -0.984375 2.890625 -1.015625 3.015625 -1.078125 C 3.148438 -1.140625 3.300781 -1.257812 3.46875 -1.4375 L 4.46875 -0.9375 C 4.050781 -0.226562 3.359375 0.125 2.390625 0.125 C 1.785156 0.125 1.265625 -0.0820312 0.828125 -0.5 C 0.398438 -0.914062 0.1875 -1.414062 0.1875 -2 C 0.1875 -2.582031 0.398438 -3.082031 0.828125 -3.5 C 1.265625 -3.925781 1.785156 -4.140625 2.390625 -4.140625 C 3.023438 -4.140625 3.539062 -3.953125 3.9375 -3.578125 C 4.34375 -3.210938 4.546875 -2.6875 4.546875 -2 C 4.546875 -1.90625 4.539062 -1.84375 4.53125 -1.8125 Z M 1.65625 -2.578125 L 3.1875 -2.578125 C 3.15625 -2.785156 3.070312 -2.945312 2.9375 -3.0625 C 2.800781 -3.175781 2.628906 -3.234375 2.421875 -3.234375 C 2.191406 -3.234375 2.007812 -3.171875 1.875 -3.046875 C 1.738281 -2.929688 1.664062 -2.773438 1.65625 -2.578125 Z M 1.65625 -2.578125 "/></g></g></g><g fill="#272424" fill-opacity="1"><g transform="translate(72.050896, 221.650273)"><g><path d="M 0.46875 0 L 0.46875 -6.734375 L 1.859375 -6.734375 L 1.859375 0 Z M 0.46875 0 "/></g></g></g><g fill="#272424" fill-opacity="1"><g transform="translate(78.414214, 221.650273)"><g><path d="M 1.90625 -5.203125 L 3.484375 -6.578125 L 4.203125 -5.671875 L 2.34375 -4.59375 Z M 4.53125 -1.8125 L 1.625 -1.8125 C 1.625 -1.53125 1.710938 -1.320312 1.890625 -1.1875 C 2.078125 -1.050781 2.273438 -0.984375 2.484375 -0.984375 C 2.710938 -0.984375 2.890625 -1.015625 3.015625 -1.078125 C 3.148438 -1.140625 3.300781 -1.257812 3.46875 -1.4375 L 4.46875 -0.9375 C 4.050781 -0.226562 3.359375 0.125 2.390625 0.125 C 1.785156 0.125 1.265625 -0.0820312 0.828125 -0.5 C 0.398438 -0.914062 0.1875 -1.414062 0.1875 -2 C 0.1875 -2.582031 0.398438 -3.082031 0.828125 -3.5 C 1.265625 -3.925781 1.785156 -4.140625 2.390625 -4.140625 C 3.023438 -4.140625 3.539062 -3.953125 3.9375 -3.578125 C 4.34375 -3.210938 4.546875 -2.6875 4.546875 -2 C 4.546875 -1.90625 4.539062 -1.84375 4.53125 -1.8125 Z M 1.65625 -2.578125 L 3.1875 -2.578125 C 3.15625 -2.785156 3.070312 -2.945312 2.9375 -3.0625 C 2.800781 -3.175781 2.628906 -3.234375 2.421875 -3.234375 C 2.191406 -3.234375 2.007812 -3.171875 1.875 -3.046875 C 1.738281 -2.929688 1.664062 -2.773438 1.65625 -2.578125 Z M 1.65625 -2.578125 "/></g></g></g><g fill="#272424" fill-opacity="1"><g transform="translate(87.172593, 221.650273)"><g><path d="M 0.296875 0.984375 L 1.421875 0.4375 C 1.628906 0.78125 1.992188 0.953125 2.515625 0.953125 C 2.753906 0.953125 2.972656 0.875 3.171875 0.71875 C 3.378906 0.5625 3.484375 0.328125 3.484375 0.015625 L 3.484375 -0.296875 C 3.242188 -0.015625 2.804688 0.125 2.171875 0.125 C 1.597656 0.125 1.125 -0.078125 0.75 -0.484375 C 0.375 -0.898438 0.1875 -1.40625 0.1875 -2 C 0.1875 -2.59375 0.375 -3.097656 0.75 -3.515625 C 1.125 -3.929688 1.597656 -4.140625 2.171875 -4.140625 C 2.691406 -4.140625 3.125 -3.976562 3.46875 -3.65625 L 3.484375 -3.65625 L 3.484375 -4.015625 L 4.875 -4.015625 L 4.875 0.109375 C 4.875 0.765625 4.65625 1.269531 4.21875 1.625 C 3.789062 1.976562 3.222656 2.15625 2.515625 2.15625 C 1.367188 2.15625 0.628906 1.765625 0.296875 0.984375 Z M 1.921875 -2.6875 C 1.742188 -2.507812 1.65625 -2.28125 1.65625 -2 C 1.65625 -1.726562 1.738281 -1.503906 1.90625 -1.328125 C 2.082031 -1.148438 2.3125 -1.0625 2.59375 -1.0625 C 2.863281 -1.0625 3.082031 -1.148438 3.25 -1.328125 C 3.425781 -1.503906 3.515625 -1.726562 3.515625 -2 C 3.515625 -2.28125 3.425781 -2.507812 3.25 -2.6875 C 3.070312 -2.863281 2.851562 -2.953125 2.59375 -2.953125 C 2.320312 -2.953125 2.097656 -2.863281 1.921875 -2.6875 Z M 1.921875 -2.6875 "/></g></g></g><g fill="#272424" fill-opacity="1"><g transform="translate(96.557132, 221.650273)"><g><path d="M 0.75 -0.484375 C 0.375 -0.898438 0.1875 -1.40625 0.1875 -2 C 0.1875 -2.59375 0.375 -3.097656 0.75 -3.515625 C 1.125 -3.929688 1.597656 -4.140625 2.171875 -4.140625 C 2.703125 -4.140625 3.140625 -3.96875 3.484375 -3.625 L 3.484375 -4.015625 L 4.875 -4.015625 L 4.875 0 L 3.5 0 L 3.5 -0.453125 L 3.484375 -0.453125 C 3.140625 -0.0664062 2.703125 0.125 2.171875 0.125 C 1.597656 0.125 1.125 -0.078125 0.75 -0.484375 Z M 1.921875 -2.6875 C 1.742188 -2.507812 1.65625 -2.28125 1.65625 -2 C 1.65625 -1.726562 1.738281 -1.503906 1.90625 -1.328125 C 2.082031 -1.148438 2.3125 -1.0625 2.59375 -1.0625 C 2.863281 -1.0625 3.082031 -1.148438 3.25 -1.328125 C 3.425781 -1.503906 3.515625 -1.726562 3.515625 -2 C 3.515625 -2.28125 3.425781 -2.507812 3.25 -2.6875 C 3.070312 -2.863281 2.851562 -2.953125 2.59375 -2.953125 C 2.320312 -2.953125 2.097656 -2.863281 1.921875 -2.6875 Z M 1.921875 -2.6875 "/></g></g></g><g fill="#272424" fill-opacity="1"><g transform="translate(105.94167, 221.650273)"><g><path d="M 0.46875 0 L 0.46875 -4.015625 L 1.859375 -4.015625 L 1.859375 -3.59375 L 1.875 -3.59375 C 2.226562 -3.957031 2.609375 -4.140625 3.015625 -4.140625 C 3.210938 -4.140625 3.410156 -4.113281 3.609375 -4.0625 C 3.804688 -4.007812 3.992188 -3.925781 4.171875 -3.8125 C 4.359375 -3.695312 4.503906 -3.539062 4.609375 -3.34375 C 4.722656 -3.144531 4.78125 -2.910156 4.78125 -2.640625 L 4.78125 0 L 3.390625 0 L 3.390625 -2.265625 C 3.390625 -2.472656 3.320312 -2.65625 3.1875 -2.8125 C 3.0625 -2.96875 2.890625 -3.046875 2.671875 -3.046875 C 2.460938 -3.046875 2.273438 -2.960938 2.109375 -2.796875 C 1.941406 -2.640625 1.859375 -2.460938 1.859375 -2.265625 L 1.859375 0 Z M 0.46875 0 "/></g></g></g><g fill="#272424" fill-opacity="1"><g transform="translate(115.154011, 221.650273)"><g><path d="M 2.609375 -3 C 2.347656 -3 2.125 -2.898438 1.9375 -2.703125 C 1.75 -2.515625 1.65625 -2.285156 1.65625 -2.015625 C 1.65625 -1.734375 1.75 -1.492188 1.9375 -1.296875 C 2.125 -1.109375 2.347656 -1.015625 2.609375 -1.015625 C 2.734375 -1.015625 2.847656 -1.03125 2.953125 -1.0625 C 3.066406 -1.09375 3.148438 -1.125 3.203125 -1.15625 L 3.28125 -1.203125 L 3.75 -0.25 C 3.707031 -0.21875 3.65625 -0.179688 3.59375 -0.140625 C 3.53125 -0.109375 3.378906 -0.0546875 3.140625 0.015625 C 2.910156 0.0859375 2.664062 0.125 2.40625 0.125 C 1.8125 0.125 1.289062 -0.0820312 0.84375 -0.5 C 0.40625 -0.914062 0.1875 -1.414062 0.1875 -2 C 0.1875 -2.582031 0.40625 -3.082031 0.84375 -3.5 C 1.289062 -3.925781 1.8125 -4.140625 2.40625 -4.140625 C 2.664062 -4.140625 2.90625 -4.109375 3.125 -4.046875 C 3.351562 -3.984375 3.515625 -3.914062 3.609375 -3.84375 L 3.75 -3.75 L 3.28125 -2.8125 C 3.101562 -2.9375 2.878906 -3 2.609375 -3 Z M 2.609375 -3 "/></g></g></g><g fill="#272424" fill-opacity="1"><g transform="translate(123.035767, 221.650273)"><g><path d="M 4.53125 -1.8125 L 1.625 -1.8125 C 1.625 -1.53125 1.710938 -1.320312 1.890625 -1.1875 C 2.078125 -1.050781 2.273438 -0.984375 2.484375 -0.984375 C 2.710938 -0.984375 2.890625 -1.015625 3.015625 -1.078125 C 3.148438 -1.140625 3.300781 -1.257812 3.46875 -1.4375 L 4.46875 -0.9375 C 4.050781 -0.226562 3.359375 0.125 2.390625 0.125 C 1.785156 0.125 1.265625 -0.0820312 0.828125 -0.5 C 0.398438 -0.914062 0.1875 -1.414062 0.1875 -2 C 0.1875 -2.582031 0.398438 -3.082031 0.828125 -3.5 C 1.265625 -3.925781 1.785156 -4.140625 2.390625 -4.140625 C 3.023438 -4.140625 3.539062 -3.953125 3.9375 -3.578125 C 4.34375 -3.210938 4.546875 -2.6875 4.546875 -2 C 4.546875 -1.90625 4.539062 -1.84375 4.53125 -1.8125 Z M 1.65625 -2.578125 L 3.1875 -2.578125 C 3.15625 -2.785156 3.070312 -2.945312 2.9375 -3.0625 C 2.800781 -3.175781 2.628906 -3.234375 2.421875 -3.234375 C 2.191406 -3.234375 2.007812 -3.171875 1.875 -3.046875 C 1.738281 -2.929688 1.664062 -2.773438 1.65625 -2.578125 Z M 1.65625 -2.578125 "/></g></g></g><g fill="#272424" fill-opacity="1"><g transform="translate(131.794146, 221.650273)"><g/></g></g><g fill="#272424" fill-opacity="1"><g transform="translate(137.969606, 221.650273)"><g><path d="M 0.75 -0.484375 C 0.375 -0.898438 0.1875 -1.40625 0.1875 -2 C 0.1875 -2.59375 0.375 -3.097656 0.75 -3.515625 C 1.125 -3.929688 1.597656 -4.140625 2.171875 -4.140625 C 2.703125 -4.140625 3.140625 -3.96875 3.484375 -3.625 L 3.484375 -4.015625 L 4.875 -4.015625 L 4.875 0 L 3.5 0 L 3.5 -0.453125 L 3.484375 -0.453125 C 3.140625 -0.0664062 2.703125 0.125 2.171875 0.125 C 1.597656 0.125 1.125 -0.078125 0.75 -0.484375 Z M 1.921875 -2.6875 C 1.742188 -2.507812 1.65625 -2.28125 1.65625 -2 C 1.65625 -1.726562 1.738281 -1.503906 1.90625 -1.328125 C 2.082031 -1.148438 2.3125 -1.0625 2.59375 -1.0625 C 2.863281 -1.0625 3.082031 -1.148438 3.25 -1.328125 C 3.425781 -1.503906 3.515625 -1.726562 3.515625 -2 C 3.515625 -2.28125 3.425781 -2.507812 3.25 -2.6875 C 3.070312 -2.863281 2.851562 -2.953125 2.59375 -2.953125 C 2.320312 -2.953125 2.097656 -2.863281 1.921875 -2.6875 Z M 1.921875 -2.6875 "/></g></g></g><g fill="#272424" fill-opacity="1"><g transform="translate(147.354145, 221.650273)"><g><path d="M 1.78125 -4.015625 L 1.78125 -2.109375 C 1.78125 -1.710938 1.835938 -1.429688 1.953125 -1.265625 C 2.078125 -1.097656 2.28125 -1.015625 2.5625 -1.015625 C 2.851562 -1.015625 3.054688 -1.097656 3.171875 -1.265625 C 3.296875 -1.429688 3.359375 -1.710938 3.359375 -2.109375 L 3.359375 -4.015625 L 4.75 -4.015625 L 4.75 -1.765625 C 4.75 -1.097656 4.570312 -0.613281 4.21875 -0.3125 C 3.875 -0.0195312 3.320312 0.125 2.5625 0.125 C 1.8125 0.125 1.257812 -0.0195312 0.90625 -0.3125 C 0.5625 -0.613281 0.390625 -1.097656 0.390625 -1.765625 L 0.390625 -4.015625 Z M 1.78125 -4.015625 "/></g></g></g><g fill="#272424" fill-opacity="1"><g transform="translate(156.527352, 221.650273)"><g/></g></g><g fill="#272424" fill-opacity="1"><g transform="translate(162.702818, 221.650273)"><g><path d="M 0.46875 0 L 0.46875 -4.015625 L 1.859375 -4.015625 L 1.859375 -3.4375 L 1.875 -3.4375 C 1.882812 -3.457031 1.898438 -3.484375 1.921875 -3.515625 C 1.941406 -3.546875 1.988281 -3.597656 2.0625 -3.671875 C 2.144531 -3.753906 2.226562 -3.828125 2.3125 -3.890625 C 2.40625 -3.953125 2.519531 -4.007812 2.65625 -4.0625 C 2.800781 -4.113281 2.945312 -4.140625 3.09375 -4.140625 C 3.25 -4.140625 3.398438 -4.117188 3.546875 -4.078125 C 3.691406 -4.035156 3.796875 -3.992188 3.859375 -3.953125 L 3.984375 -3.875 L 3.390625 -2.703125 C 3.222656 -2.847656 2.984375 -2.921875 2.671875 -2.921875 C 2.503906 -2.921875 2.359375 -2.882812 2.234375 -2.8125 C 2.117188 -2.738281 2.035156 -2.648438 1.984375 -2.546875 C 1.941406 -2.441406 1.910156 -2.351562 1.890625 -2.28125 C 1.867188 -2.207031 1.859375 -2.148438 1.859375 -2.109375 L 1.859375 0 Z M 0.46875 0 "/></g></g></g><g fill="#272424" fill-opacity="1"><g transform="translate(170.639362, 221.650273)"><g><path d="M 4.53125 -1.8125 L 1.625 -1.8125 C 1.625 -1.53125 1.710938 -1.320312 1.890625 -1.1875 C 2.078125 -1.050781 2.273438 -0.984375 2.484375 -0.984375 C 2.710938 -0.984375 2.890625 -1.015625 3.015625 -1.078125 C 3.148438 -1.140625 3.300781 -1.257812 3.46875 -1.4375 L 4.46875 -0.9375 C 4.050781 -0.226562 3.359375 0.125 2.390625 0.125 C 1.785156 0.125 1.265625 -0.0820312 0.828125 -0.5 C 0.398438 -0.914062 0.1875 -1.414062 0.1875 -2 C 0.1875 -2.582031 0.398438 -3.082031 0.828125 -3.5 C 1.265625 -3.925781 1.785156 -4.140625 2.390625 -4.140625 C 3.023438 -4.140625 3.539062 -3.953125 3.9375 -3.578125 C 4.34375 -3.210938 4.546875 -2.6875 4.546875 -2 C 4.546875 -1.90625 4.539062 -1.84375 4.53125 -1.8125 Z M 1.65625 -2.578125 L 3.1875 -2.578125 C 3.15625 -2.785156 3.070312 -2.945312 2.9375 -3.0625 C 2.800781 -3.175781 2.628906 -3.234375 2.421875 -3.234375 C 2.191406 -3.234375 2.007812 -3.171875 1.875 -3.046875 C 1.738281 -2.929688 1.664062 -2.773438 1.65625 -2.578125 Z M 1.65625 -2.578125 "/></g></g></g><g fill="#272424" fill-opacity="1"><g transform="translate(179.397741, 221.650273)"><g><path d="M 0.46875 0 L 0.46875 -4.015625 L 1.859375 -4.015625 L 1.859375 -3.59375 L 1.875 -3.59375 C 2.226562 -3.957031 2.609375 -4.140625 3.015625 -4.140625 C 3.210938 -4.140625 3.410156 -4.113281 3.609375 -4.0625 C 3.804688 -4.007812 3.992188 -3.925781 4.171875 -3.8125 C 4.359375 -3.695312 4.503906 -3.539062 4.609375 -3.34375 C 4.722656 -3.144531 4.78125 -2.910156 4.78125 -2.640625 L 4.78125 0 L 3.390625 0 L 3.390625 -2.265625 C 3.390625 -2.472656 3.320312 -2.65625 3.1875 -2.8125 C 3.0625 -2.96875 2.890625 -3.046875 2.671875 -3.046875 C 2.460938 -3.046875 2.273438 -2.960938 2.109375 -2.796875 C 1.941406 -2.640625 1.859375 -2.460938 1.859375 -2.265625 L 1.859375 0 Z M 0.46875 0 "/></g></g></g><g fill="#272424" fill-opacity="1"><g transform="translate(188.610082, 221.650273)"><g><path d="M 0.75 -0.484375 C 0.375 -0.898438 0.1875 -1.40625 0.1875 -2 C 0.1875 -2.59375 0.375 -3.097656 0.75 -3.515625 C 1.125 -3.929688 1.597656 -4.140625 2.171875 -4.140625 C 2.703125 -4.140625 3.140625 -3.96875 3.484375 -3.625 L 3.484375 -6.734375 L 4.875 -6.734375 L 4.875 0 L 3.5 0 L 3.5 -0.453125 L 3.484375 -0.453125 C 3.140625 -0.0664062 2.703125 0.125 2.171875 0.125 C 1.597656 0.125 1.125 -0.078125 0.75 -0.484375 Z M 1.921875 -2.6875 C 1.742188 -2.507812 1.65625 -2.28125 1.65625 -2 C 1.65625 -1.726562 1.738281 -1.503906 1.90625 -1.328125 C 2.082031 -1.148438 2.3125 -1.0625 2.59375 -1.0625 C 2.863281 -1.0625 3.082031 -1.148438 3.25 -1.328125 C 3.425781 -1.503906 3.515625 -1.726562 3.515625 -2 C 3.515625 -2.28125 3.425781 -2.507812 3.25 -2.6875 C 3.070312 -2.863281 2.851562 -2.953125 2.59375 -2.953125 C 2.320312 -2.953125 2.097656 -2.863281 1.921875 -2.6875 Z M 1.921875 -2.6875 "/></g></g></g><g fill="#272424" fill-opacity="1"><g transform="translate(197.99462, 221.650273)"><g><path d="M 4.53125 -1.8125 L 1.625 -1.8125 C 1.625 -1.53125 1.710938 -1.320312 1.890625 -1.1875 C 2.078125 -1.050781 2.273438 -0.984375 2.484375 -0.984375 C 2.710938 -0.984375 2.890625 -1.015625 3.015625 -1.078125 C 3.148438 -1.140625 3.300781 -1.257812 3.46875 -1.4375 L 4.46875 -0.9375 C 4.050781 -0.226562 3.359375 0.125 2.390625 0.125 C 1.785156 0.125 1.265625 -0.0820312 0.828125 -0.5 C 0.398438 -0.914062 0.1875 -1.414062 0.1875 -2 C 0.1875 -2.582031 0.398438 -3.082031 0.828125 -3.5 C 1.265625 -3.925781 1.785156 -4.140625 2.390625 -4.140625 C 3.023438 -4.140625 3.539062 -3.953125 3.9375 -3.578125 C 4.34375 -3.210938 4.546875 -2.6875 4.546875 -2 C 4.546875 -1.90625 4.539062 -1.84375 4.53125 -1.8125 Z M 1.65625 -2.578125 L 3.1875 -2.578125 C 3.15625 -2.785156 3.070312 -2.945312 2.9375 -3.0625 C 2.800781 -3.175781 2.628906 -3.234375 2.421875 -3.234375 C 2.191406 -3.234375 2.007812 -3.171875 1.875 -3.046875 C 1.738281 -2.929688 1.664062 -2.773438 1.65625 -2.578125 Z M 1.65625 -2.578125 "/></g></g></g><g fill="#272424" fill-opacity="1"><g transform="translate(206.752999, 221.650273)"><g><path d="M 4.359375 -4.015625 L 2.359375 -1.0625 L 4.203125 -1.0625 L 4.203125 0 L 0.046875 0 L 2.03125 -2.953125 L 0.375 -2.953125 L 0.375 -4.015625 Z M 4.359375 -4.015625 "/></g></g></g><g fill="#272424" fill-opacity="1"><g transform="translate(215.182638, 221.650273)"><g><path d="M 0.46875 -2.859375 L 2.984375 -2.859375 L 2.984375 -1.671875 L 0.46875 -1.671875 Z M 0.46875 -2.859375 "/></g></g></g><g fill="#272424" fill-opacity="1"><g transform="translate(222.680856, 221.650273)"><g><path d="M 1.484375 -4.015625 L 2.46875 -1.828125 L 3.4375 -4.015625 L 5.09375 -4.015625 L 2.9375 0 L 2 0 L -0.15625 -4.015625 Z M 1.484375 -4.015625 "/></g></g></g><g fill="#272424" fill-opacity="1"><g transform="translate(231.650556, 221.650273)"><g><path d="M 0.84375 -0.46875 C 0.40625 -0.875 0.1875 -1.382812 0.1875 -2 C 0.1875 -2.625 0.414062 -3.132812 0.875 -3.53125 C 1.34375 -3.9375 1.914062 -4.140625 2.59375 -4.140625 C 3.269531 -4.140625 3.835938 -3.9375 4.296875 -3.53125 C 4.765625 -3.125 5 -2.613281 5 -2 C 5 -1.382812 4.769531 -0.875 4.3125 -0.46875 C 3.863281 -0.0703125 3.289062 0.125 2.59375 0.125 C 1.875 0.125 1.289062 -0.0703125 0.84375 -0.46875 Z M 1.921875 -2.6875 C 1.742188 -2.507812 1.65625 -2.28125 1.65625 -2 C 1.65625 -1.726562 1.738281 -1.503906 1.90625 -1.328125 C 2.082031 -1.148438 2.3125 -1.0625 2.59375 -1.0625 C 2.863281 -1.0625 3.082031 -1.148438 3.25 -1.328125 C 3.425781 -1.503906 3.515625 -1.726562 3.515625 -2 C 3.515625 -2.28125 3.425781 -2.507812 3.25 -2.6875 C 3.070312 -2.863281 2.851562 -2.953125 2.59375 -2.953125 C 2.320312 -2.953125 2.097656 -2.863281 1.921875 -2.6875 Z M 1.921875 -2.6875 "/></g></g></g><g fill="#272424" fill-opacity="1"><g transform="translate(240.862897, 221.650273)"><g><path d="M 1.78125 -4.015625 L 1.78125 -2.109375 C 1.78125 -1.710938 1.835938 -1.429688 1.953125 -1.265625 C 2.078125 -1.097656 2.28125 -1.015625 2.5625 -1.015625 C 2.851562 -1.015625 3.054688 -1.097656 3.171875 -1.265625 C 3.296875 -1.429688 3.359375 -1.710938 3.359375 -2.109375 L 3.359375 -4.015625 L 4.75 -4.015625 L 4.75 -1.765625 C 4.75 -1.097656 4.570312 -0.613281 4.21875 -0.3125 C 3.875 -0.0195312 3.320312 0.125 2.5625 0.125 C 1.8125 0.125 1.257812 -0.0195312 0.90625 -0.3125 C 0.5625 -0.613281 0.390625 -1.097656 0.390625 -1.765625 L 0.390625 -4.015625 Z M 1.78125 -4.015625 "/></g></g></g><g fill="#272424" fill-opacity="1"><g transform="translate(250.036105, 221.650273)"><g><path d="M 2.21875 -4.140625 C 2.445312 -4.140625 2.671875 -4.113281 2.890625 -4.0625 C 3.117188 -4.007812 3.285156 -3.957031 3.390625 -3.90625 L 3.5625 -3.8125 L 3.109375 -2.90625 C 2.796875 -3.070312 2.5 -3.15625 2.21875 -3.15625 C 2.0625 -3.15625 1.945312 -3.140625 1.875 -3.109375 C 1.8125 -3.078125 1.78125 -3.015625 1.78125 -2.921875 C 1.78125 -2.898438 1.78125 -2.878906 1.78125 -2.859375 C 1.789062 -2.835938 1.800781 -2.816406 1.8125 -2.796875 C 1.832031 -2.773438 1.847656 -2.757812 1.859375 -2.75 C 1.878906 -2.738281 1.90625 -2.722656 1.9375 -2.703125 C 1.96875 -2.691406 1.988281 -2.679688 2 -2.671875 C 2.019531 -2.660156 2.050781 -2.644531 2.09375 -2.625 C 2.132812 -2.613281 2.164062 -2.601562 2.1875 -2.59375 C 2.207031 -2.59375 2.242188 -2.582031 2.296875 -2.5625 C 2.347656 -2.550781 2.382812 -2.539062 2.40625 -2.53125 C 2.570312 -2.488281 2.710938 -2.4375 2.828125 -2.375 C 2.953125 -2.320312 3.078125 -2.242188 3.203125 -2.140625 C 3.335938 -2.046875 3.441406 -1.921875 3.515625 -1.765625 C 3.585938 -1.617188 3.625 -1.445312 3.625 -1.25 C 3.625 -0.332031 2.992188 0.125 1.734375 0.125 C 1.441406 0.125 1.164062 0.078125 0.90625 -0.015625 C 0.65625 -0.109375 0.472656 -0.195312 0.359375 -0.28125 L 0.1875 -0.421875 L 0.75 -1.375 C 0.789062 -1.332031 0.84375 -1.285156 0.90625 -1.234375 C 0.976562 -1.191406 1.101562 -1.125 1.28125 -1.03125 C 1.457031 -0.945312 1.609375 -0.90625 1.734375 -0.90625 C 2.023438 -0.90625 2.171875 -1.003906 2.171875 -1.203125 C 2.171875 -1.285156 2.132812 -1.351562 2.0625 -1.40625 C 1.988281 -1.457031 1.863281 -1.515625 1.6875 -1.578125 C 1.507812 -1.640625 1.375 -1.695312 1.28125 -1.75 C 1.03125 -1.875 0.832031 -2.019531 0.6875 -2.1875 C 0.539062 -2.351562 0.46875 -2.570312 0.46875 -2.84375 C 0.46875 -3.25 0.625 -3.566406 0.9375 -3.796875 C 1.25 -4.023438 1.675781 -4.140625 2.21875 -4.140625 Z M 2.21875 -4.140625 "/></g></g></g></svg>